<svg xmlns="http://www.w3.org/2000/svg" viewBox="0 0 24 24" fill="none">
  <defs>
    <linearGradient id="g" x1="4" y1="4" x2="20" y2="20" gradientUnits="userSpaceOnUse">
      <stop stop-color="#8b5cf6" />
      <stop offset=".48" stop-color="#3b82f6" />
      <stop offset="1" stop-color="#14b8a6" />
    </linearGradient>
    <linearGradient id="c" x1="8" y1="8" x2="16" y2="16" gradientUnits="userSpaceOnUse">
      <stop stop-color="#ffffff" />
      <stop offset="1" stop-color="#e0f2fe" />
    </linearGradient>
  </defs>
  <path d="m12 3.8 1.7 2.6 3.1.4.4 3.1 2.5 1.7-1.8 2.5.4 3.1-3.1.4-2.5 1.9-2.5-1.9-3.1-.4.4-3.1-1.9-2.5 2.6-1.7.4-3.1 3.1-.4L12 3.8Z" fill="url(#g)" />
  <circle cx="12" cy="12" r="4.4" fill="url(#c)" />
  <circle cx="12" cy="12" r="1.65" fill="url(#g)" />
  <path d="m8.2 10 2 2-2 2M15.8 10l-2 2 2 2" stroke="#6366f1" stroke-width="1.05" stroke-linecap="round" stroke-linejoin="round" />
</svg>
